<svg xmlns="http://www.w3.org/2000/svg" width="94" height="76" viewBox="0 0 94 76" fill="none"><g clip-path="url(#clip0_164_797)"><path d="M41.714 21.8836C41.714 23.0977 41.6894 24.3036 41.6449 25.4907C41.5827 27.1604 41.4819 28.789 41.3576 30.3472C41.1864 32.4866 40.9707 34.4862 40.7491 36.2616C40.3903 39.1161 40.0151 41.387 39.7795 42.7103C39.654 43.4148 38.9763 43.8798 38.2752 43.7436L27.1614 41.5925C26.4438 41.4527 25.9889 40.7435 26.1589 40.032C26.1648 40.0073 26.1706 39.9827 26.1777 39.9568C26.7299 37.6343 27.7734 32.5476 28.1075 26.0144C28.1755 24.6922 28.2131 23.3126 28.2131 21.8836C28.2131 13.3143 26.8167 6.47924 26.1577 3.73514C25.9877 3.02358 26.4426 2.31319 27.1602 2.17463L38.2764 0.0234996C38.9775 -0.111533 39.654 0.352275 39.7806 1.05679C40.2273 3.56019 41.1759 9.4711 41.5546 16.3002C41.6542 18.112 41.7152 19.9872 41.7152 21.8824L41.714 21.8836Z" fill="#A3001E"></path><path d="M67.637 40.0307C67.8082 40.7423 67.3521 41.4527 66.6357 41.5913L55.5219 43.7424C54.8195 43.8774 54.1442 43.4136 54.0176 42.7091C53.7209 41.0464 53.2027 37.882 52.7771 33.9437C52.5614 31.9499 52.3691 29.7565 52.2436 27.4586C52.1475 25.7231 52.0889 23.929 52.0842 22.1148C52.083 22.0385 52.083 21.9598 52.083 21.8823C52.083 18.9574 52.226 16.0783 52.4394 13.4128C52.885 7.84009 53.6354 3.20084 54.0176 1.05675C54.143 0.352231 54.8195 -0.112752 55.5219 0.023455L66.6357 2.17459C67.3521 2.31432 67.8082 3.02353 67.637 3.7351C67.6323 3.75623 67.6264 3.77737 67.6206 3.79968C67.0707 6.10815 66.0319 11.176 65.693 17.6869C65.693 17.6963 65.6918 17.7069 65.6918 17.7175C65.6227 19.0502 65.5828 20.4416 65.5828 21.8823C65.5828 30.4516 66.9792 37.2878 67.637 40.0307Z" fill="#A3001E"></path><path d="M41.3589 30.3459C41.1877 32.4853 40.9719 34.485 40.7504 36.2604C28.5063 37.8561 26.1602 40.0319 26.1602 40.0319C26.1602 40.0319 26.1602 40.0296 26.1602 40.0284C26.1602 40.0284 26.1602 40.0284 26.1602 40.0272C26.1602 40.0272 26.1602 40.0249 26.1602 40.0237C26.1602 40.0237 26.1602 40.0225 26.1602 40.0213C26.1602 40.0213 26.1602 40.019 26.1602 40.0178C26.2352 39.7231 27.6445 34.9382 41.3542 30.3471H41.3553L41.3589 30.3459Z" fill="#660001"></path><path d="M65.6935 17.687C65.6032 18.7684 64.942 29.6673 52.7776 33.9426C52.5619 31.9488 52.3696 29.7554 52.2441 27.4575C62.8421 24.037 65.6935 17.6952 65.6935 17.6858V17.687Z" fill="#660001"></path><path d="M17.043 53.2111H13.7835C13.5901 53.2111 13.4611 53.3403 13.4611 53.534V62.6822H3.87266V53.5023C3.87266 53.3403 3.74369 53.2111 3.58189 53.2111H0.322429C0.128972 53.2111 0 53.3403 0 53.534V75.3213C0 75.515 0.128972 75.6442 0.322429 75.6442H3.55023C3.74369 75.6442 3.87266 75.515 3.87266 75.3213V66.0122H13.4588V75.3213C13.4588 75.515 13.5877 75.6442 13.7495 75.6442H17.009C17.2025 75.6442 17.3314 75.515 17.3314 75.3213V53.5023C17.3314 53.3403 17.2025 53.2111 17.0407 53.2111H17.043Z" fill="#25000B"></path><path d="M36.0859 60.4513H33.6331C33.4396 60.4513 33.3423 60.5804 33.2778 60.7742L32.7936 62.5202C31.729 61.0337 30.0829 60.1929 27.9525 60.1929C23.401 60.1929 20.335 63.3609 20.335 68.08C20.335 72.7991 23.401 76.0317 27.9525 76C30.0829 76 31.729 75.1276 32.7936 73.6081L33.245 75.3213C33.3095 75.515 33.4068 75.6442 33.6003 75.6442H36.0859C36.2794 75.6442 36.4083 75.4822 36.4083 75.3213V60.7753C36.4083 60.5816 36.2794 60.4524 36.0859 60.4524V60.4513ZM28.1776 72.3471C25.692 72.3471 23.9813 70.601 23.9813 68.08C23.9813 65.559 25.6603 63.8459 28.1776 63.8459C30.6949 63.8459 32.47 65.5273 32.5028 68.08C32.47 70.6339 30.7277 72.3471 28.1776 72.3471Z" fill="#25000B"></path><path d="M48.4475 60.1929C46.4789 60.1929 44.9289 60.9362 43.896 62.229V52.5959C43.896 52.4021 43.7342 52.2729 43.5736 52.2729H40.5392C40.3458 52.2729 40.2168 52.4021 40.2168 52.5959V75.353C40.2168 75.515 40.3458 75.6442 40.5392 75.6442H42.7013C42.8947 75.6442 43.0237 75.515 43.0882 75.3213L43.5724 73.5753C44.6382 75.0947 46.2831 76 48.4464 76C52.9979 76 56.031 72.7674 56.031 68.08C56.031 63.3926 52.9967 60.1929 48.4464 60.1929H48.4475ZM48.1896 72.3471C45.6723 72.3471 43.8972 70.6339 43.8972 68.08C43.8972 65.5261 45.6723 63.813 48.1896 63.813C50.7069 63.813 52.4175 65.5261 52.4175 68.08C52.4175 70.6339 50.674 72.3471 48.1896 72.3471Z" fill="#25000B"></path><path d="M73.7529 60.4513H71.3001C71.1066 60.4513 71.0093 60.5804 70.9448 60.7742L70.4606 62.5202C69.396 61.0337 67.7499 60.1929 65.6195 60.1929C61.068 60.1929 58.002 63.3609 58.002 68.08C58.002 72.7991 61.068 76.0317 65.6195 76C67.7499 76 69.396 75.1276 70.4606 73.6081L70.912 75.3213C70.9765 75.515 71.0738 75.6442 71.2673 75.6442H73.7529C73.9463 75.6442 74.0753 75.4822 74.0753 75.3213V60.7753C74.0753 60.5816 73.9463 60.4524 73.7529 60.4524V60.4513ZM65.8458 72.3471C63.3601 72.3471 61.6495 70.601 61.6495 68.08C61.6495 65.559 63.3273 63.8459 65.8458 63.8459C68.3642 63.8459 70.1382 65.5273 70.171 68.08C70.1382 70.6339 68.3959 72.3471 65.8458 72.3471Z" fill="#25000B"></path><path d="M87.2127 60.5487C86.7285 60.4195 85.889 60.1612 84.8889 60.1612C83.3401 60.1612 82.0164 60.8399 81.0479 61.8098L80.7255 60.8082C80.6926 60.6461 80.5637 60.4853 80.3057 60.4853H78.2082C78.0147 60.4853 77.8857 60.6144 77.8857 60.8082V75.3224C77.8857 75.5162 78.0147 75.6454 78.2082 75.6454H81.2425C81.4688 75.6454 81.5649 75.5162 81.5649 75.3224V65.7222C82.1137 64.5586 83.1466 63.8799 84.1796 63.8799C84.9217 63.8799 85.7929 64.1382 86.2126 64.3319C86.2771 64.3319 86.3099 64.3648 86.3744 64.3648C86.5362 64.3648 86.6324 64.2674 86.6652 64.1382L87.4402 60.9702C87.5047 60.7765 87.4074 60.6144 87.2139 60.5499L87.2127 60.5487Z" fill="#25000B"></path><path d="M92.9582 60.4841H89.9567C89.7304 60.4524 89.6014 60.6133 89.6014 60.807V75.3213C89.6014 75.5151 89.7304 75.6442 89.9239 75.6442H92.9582C93.1517 75.6442 93.2807 75.5151 93.2807 75.3213V60.7753C93.2807 60.5816 93.1517 60.4841 92.9582 60.4841ZM91.4411 52.9517C90.0212 52.9517 89.0527 53.8887 89.0527 55.3118C89.0527 56.7349 90.0212 57.7036 91.4411 57.7036C92.8609 57.7036 93.7977 56.7338 93.7977 55.3118C93.7977 53.8898 92.8937 52.9517 91.4411 52.9517Z" fill="#25000B"></path><path d="M67.6171 3.81494C67.066 6.13046 66.0319 11.1901 65.6931 17.6869C65.6931 17.6963 62.8416 24.037 52.2437 27.4586C50.6468 27.9729 43.0433 29.787 41.3573 30.346H41.3561C27.6476 34.9371 26.2371 39.7219 26.1621 40.0167C26.4822 38.671 26.9711 36.3743 27.3909 33.4118C27.6934 31.2759 27.9607 28.7937 28.1025 26.0719C28.1025 26.0625 30.9657 19.7171 41.5519 16.3002H41.5531C43.1523 15.7835 50.7464 13.9389 52.4395 13.4128C66.0589 9.17751 67.5385 4.1261 67.6171 3.81494Z" fill="#EA0028"></path><path d="M67.6182 3.81161C67.6182 3.81161 67.6194 3.80682 67.6206 3.80322C67.6206 3.80562 67.6206 3.80802 67.6182 3.81161Z" fill="#EA0028"></path></g><defs><clipPath id="clip0_164_797"><rect width="93.7975" height="76" fill="white"></rect></clipPath></defs></svg>